<svg width="92" height="92" viewBox="0 0 92 92" fill="none" xmlns="http://www.w3.org/2000/svg">
<circle cx="46" cy="46" r="46" fill="#F0ECE4"/>
<path fill-rule="evenodd" clip-rule="evenodd" d="M34 28C34 26.3431 35.3431 25 37 25H72C73.6569 25 75 26.3431 75 28V42C75 43.6569 73.6569 45 72 45H37C35.3431 45 34 43.6569 34 42V28ZM37 27C36.4477 27 36 27.4477 36 28V42C36 42.5523 36.4477 43 37 43H72C72.5523 43 73 42.5523 73 42V28C73 27.4477 72.5523 27 72 27H37ZM44 30.5C44.5523 30.5 45 30.9477 45 31.5V33.6743L47.2253 33.0385C47.7563 32.8868 48.3098 33.1942 48.4615 33.7253C48.6132 34.2563 48.3058 34.8098 47.7747 34.9615L45.6376 35.5721L47.3137 37.9188C47.6347 38.3682 47.5307 38.9927 47.0812 39.3137C46.6318 39.6347 46.0073 39.5307 45.6863 39.0812L44 36.7205L42.3137 39.0812C41.9927 39.5307 41.3682 39.6347 40.9188 39.3137C40.4693 38.9927 40.3653 38.3682 40.6863 37.9188L42.3624 35.5721L40.2253 34.9615C39.6942 34.8098 39.3868 34.2563 39.5385 33.7253C39.6902 33.1942 40.2437 32.8868 40.7747 33.0385L43 33.6743V31.5C43 30.9477 43.4477 30.5 44 30.5ZM54.5 30.5C55.0523 30.5 55.5 30.9477 55.5 31.5V33.6743L57.7253 33.0385C58.2563 32.8868 58.8098 33.1942 58.9615 33.7253C59.1132 34.2563 58.8058 34.8098 58.2747 34.9615L56.1376 35.5721L57.8137 37.9188C58.1347 38.3682 58.0307 38.9927 57.5812 39.3137C57.1318 39.6347 56.5073 39.5307 56.1863 39.0812L54.5 36.7205L52.8137 39.0812C52.4927 39.5307 51.8682 39.6347 51.4188 39.3137C50.9693 38.9927 50.8653 38.3682 51.1863 37.9188L52.8624 35.5721L50.7253 34.9615C50.1942 34.8098 49.8867 34.2563 50.0385 33.7253C50.1902 33.1942 50.7437 32.8868 51.2747 33.0385L53.5 33.6743V31.5C53.5 30.9477 53.9477 30.5 54.5 30.5ZM65.5 30.5C66.0523 30.5 66.5 30.9477 66.5 31.5V33.6743L68.7253 33.0385C69.2563 32.8868 69.8098 33.1942 69.9615 33.7253C70.1132 34.2563 69.8058 34.8098 69.2747 34.9615L67.1376 35.5721L68.8137 37.9188C69.1347 38.3682 69.0307 38.9927 68.5812 39.3137C68.1318 39.6347 67.5073 39.5307 67.1863 39.0812L65.5 36.7205L63.8137 39.0812C63.4927 39.5307 62.8682 39.6347 62.4188 39.3137C61.9693 38.9927 61.8653 38.3682 62.1863 37.9188L63.8624 35.5721L61.7253 34.9615C61.1942 34.8098 60.8868 34.2563 61.0385 33.7253C61.1902 33.1942 61.7437 32.8868 62.2747 33.0385L64.5 33.6743V31.5C64.5 30.9477 64.9477 30.5 65.5 30.5ZM19 49C19.5523 49 20 49.4477 20 50V52H35.9545C40.0701 52 43.4848 55.0446 43.983 59H51.9091C56.3654 59 60 62.5696 60 67C60 67.5523 59.5523 68 59 68H20V70C20 70.5523 19.5523 71 19 71C18.4477 71 18 70.5523 18 70V50C18 49.4477 18.4477 49 19 49ZM20 66H57.9156C57.433 63.1705 54.937 61 51.9091 61H43.0455C43.0379 61 43.0303 60.9999 43.0227 60.9997C43.0152 60.9999 43.0076 61 43 61H33C32.4477 61 32 60.5523 32 60C32 59.4477 32.4477 59 33 59H41.9611C41.4784 56.1705 38.9825 54 35.9545 54H20V66Z" fill="#050606"/>
</svg>
