<svg width="92" height="92" viewBox="0 0 92 92" fill="none" xmlns="http://www.w3.org/2000/svg">
<circle cx="46" cy="46" r="46" fill="#F0ECE4"/>
<path fill-rule="evenodd" clip-rule="evenodd" d="M22 19C20.3431 19 19 20.3431 19 22V38H53V22C53 20.3431 51.6569 19 50 19H22ZM55 22C55 19.2386 52.7614 17 50 17H22C19.2386 17 17 19.2386 17 22V41C17 43.7614 19.2386 46 22 46H35V49H26C25.4477 49 25 49.4477 25 50C25 50.5523 25.4477 51 26 51H46C46.5523 51 47 50.5523 47 50C47 49.4477 46.5523 49 46 49H37V46H50C52.7614 46 55 43.7614 55 41V22ZM53 40H19V41C19 42.6569 20.3431 44 22 44H50C51.6569 44 53 42.6569 53 41V40ZM66.7682 21.3598C67.1218 21.7841 67.0645 22.4147 66.6402 22.7682L62.762 26H63C66.333 26 70.1118 27.5422 72.1043 31.0008C74.0003 34.292 74.0002 37.5209 74 40.9035V41C74 41.5523 73.5523 42 73 42C72.4477 42 72 41.5523 72 41C72 37.5233 71.9816 34.7945 70.3713 31.9992C68.8143 29.2966 65.7904 28 63 28H62.762L66.6402 31.2318C67.0645 31.5853 67.1218 32.2159 66.7682 32.6402C66.4147 33.0645 65.7841 33.1218 65.3598 32.7682L59.3598 27.7682C59.1318 27.5782 59 27.2968 59 27C59 26.7032 59.1318 26.4218 59.3598 26.2318L65.3598 21.2318C65.7841 20.8782 66.4147 20.9355 66.7682 21.3598ZM56 51C56 48.2386 58.2386 46 61 46H69C71.7614 46 74 48.2386 74 51V69C74 71.7614 71.7614 74 69 74H61C58.2386 74 56 71.7614 56 69V51ZM58 68V69C58 70.6569 59.3431 72 61 72H69C70.6569 72 72 70.6569 72 69V68H58ZM72 66H58V51C58 49.3431 59.3431 48 61 48H69C70.6569 48 72 49.3431 72 51V66ZM21 55C21.5523 55 22 55.4477 22 56C22 61.98 27.4186 67 34.3333 67H36.2379L32.3598 63.7682C31.9355 63.4147 31.8782 62.7841 32.2318 62.3598C32.5853 61.9355 33.2159 61.8782 33.6402 62.2318L39.6402 67.2318C39.8682 67.4218 40 67.7032 40 68C40 68.2968 39.8682 68.5782 39.6402 68.7682L33.6402 73.7682C33.2159 74.1218 32.5853 74.0645 32.2318 73.6402C31.8782 73.2159 31.9355 72.5853 32.3598 72.2318L36.2379 69H34.3333C26.5174 69 20 63.2776 20 56C20 55.4477 20.4477 55 21 55Z" fill="#050606"/>
</svg>
