<svg width="92" height="92" viewBox="0 0 92 92" fill="none" xmlns="http://www.w3.org/2000/svg">
<circle cx="46" cy="46" r="46" fill="#F0ECE4"/>
<path fill-rule="evenodd" clip-rule="evenodd" d="M58.8319 18.4453C59.1383 18.9048 59.0141 19.5257 58.5546 19.832L52.5546 23.832C52.095 24.1384 51.4742 24.0142 51.1678 23.5547C50.8614 23.0952 50.9856 22.4743 51.4452 22.1679L57.4452 18.1679C57.9047 17.8616 58.5256 17.9858 58.8319 18.4453ZM36.3223 20C31.9064 20 28.3223 23.5815 28.3223 28V33H48C50.7614 33 53 35.2386 53 38V47.0159C53 47.5682 52.5523 48.0159 52 48.0159C51.4477 48.0159 51 47.5682 51 47.0159V38C51 36.3431 49.6569 35 48 35H24C22.3431 35 21 36.3431 21 38V53C21 54.6569 22.3431 56 24 56H25.9913C26.5435 56 26.9913 56.4477 26.9913 57C26.9913 57.5523 26.5435 58 25.9913 58H24C21.2386 58 19 55.7614 19 53V38C19 35.2386 21.2386 33 24 33H26.3223V28C26.3223 22.4765 30.8022 18 36.3223 18C41.8456 18 46.3223 22.4767 46.3223 28C46.3223 28.5523 45.8746 29 45.3223 29C44.77 29 44.3223 28.5523 44.3223 28C44.3223 23.5813 40.741 20 36.3223 20ZM50.9999 28C50.9999 27.4477 51.4476 27 51.9999 27H58.9999C59.5521 27 59.9999 27.4477 59.9999 28C59.9999 28.5523 59.5521 29 58.9999 29H51.9999C51.4476 29 50.9999 28.5523 50.9999 28ZM34 43C34 41.8956 34.8951 41 35.9999 41C37.1042 41 38 41.8952 38 43C38 43.7403 37.5977 44.3867 36.9999 44.7325V47C36.9999 47.5523 36.5521 48 35.9999 48C35.4476 48 34.9999 47.5523 34.9999 47V44.7324C34.4021 44.3865 34 43.7402 34 43ZM58.9999 50C58.9999 49.4477 59.4476 49 59.9999 49C62.0868 49 63.9249 50.0655 64.9999 51.6822C66.0748 50.0655 67.9129 49 69.9999 49C70.5521 49 70.9999 49.4477 70.9999 50C70.9999 50.5523 70.5521 51 69.9999 51C68.9854 51 68.0592 51.3776 67.354 52H69.9999C71.6567 52 72.9999 53.3431 72.9999 55V69C72.9999 70.6569 71.6567 72 69.9999 72H67.354C68.0592 72.6224 68.9854 73 69.9999 73C70.5521 73 70.9999 73.4477 70.9999 74C70.9999 74.5523 70.5521 75 69.9999 75C67.9129 75 66.0748 73.9345 64.9999 72.3178C63.9249 73.9345 62.0868 75 59.9999 75C59.4476 75 58.9999 74.5523 58.9999 74C58.9999 73.4477 59.4476 73 59.9999 73C61.0143 73 61.9405 72.6224 62.6457 72H33.9999C32.343 72 30.9999 70.6569 30.9999 69V55C30.9999 53.3431 32.343 52 33.9999 52H62.6457C61.9405 51.3776 61.0143 51 59.9999 51C59.4476 51 58.9999 50.5523 58.9999 50ZM63.8738 54H33.9999C33.4476 54 32.9999 54.4477 32.9999 55V69C32.9999 69.5523 33.4476 70 33.9999 70H63.8738C63.9561 69.6804 63.9999 69.3453 63.9999 69V55C63.9999 54.6547 63.9561 54.3196 63.8738 54ZM65.9999 55V69C65.9999 69.3453 66.0436 69.6804 66.1259 70H69.9999C70.5521 70 70.9999 69.5523 70.9999 69V55C70.9999 54.4477 70.5521 54 69.9999 54H66.1259C66.0436 54.3196 65.9999 54.6547 65.9999 55ZM36.9999 57.9996C37.0001 57.4473 37.448 56.9998 38.0002 57L40.0002 57.0008C40.5524 57.001 40.9999 57.4486 40.9999 58.0008V65H42.4999C43.0521 65 43.4999 65.4477 43.4999 66C43.4999 66.5523 43.0521 67 42.4999 67H37.4999C36.9476 67 36.4999 66.5523 36.4999 66C36.4999 65.4477 36.9476 65 37.4999 65H38.9999V59.0004L37.9995 59C37.4472 58.9998 36.9996 58.5519 36.9999 57.9996ZM53.9999 58C53.9999 57.4477 54.4476 57 54.9999 57H58.9999C60.6567 57 61.9999 58.3431 61.9999 60H60.9999C61.9999 60 61.9999 59.9995 61.9999 60L61.9998 60.0021L61.9998 60.0043L61.9998 60.0094L61.9997 60.0219C61.9995 60.0312 61.9992 60.0425 61.9988 60.0558C61.9979 60.0822 61.9963 60.1164 61.9934 60.1572C61.9876 60.2385 61.9765 60.348 61.955 60.4769C61.9128 60.7299 61.8266 61.0825 61.6443 61.4472C61.5534 61.6291 61.4362 61.8183 61.2859 62C61.4362 62.1817 61.5534 62.3709 61.6443 62.5528C61.8266 62.9175 61.9128 63.2701 61.955 63.5231C61.9765 63.652 61.9876 63.7615 61.9934 63.8428C61.9963 63.8836 61.9979 63.9178 61.9988 63.9442C61.9992 63.9575 61.9995 63.9688 61.9997 63.9781L61.9998 63.9906L61.9998 63.9957L61.9998 63.9979L61.9999 63.999C61.9999 63.9995 61.9999 64 60.9999 64L61.9999 63.999C61.9999 65.6559 60.6567 67 58.9999 67H54.9999C54.4476 67 53.9999 66.5523 53.9999 66C53.9999 65.4477 54.4476 65 54.9999 65H58.9999C59.5494 65 59.9954 64.5567 59.9998 64.0082C59.9996 64.0039 59.9993 63.9962 59.9985 63.9853C59.9965 63.9572 59.992 63.9105 59.9822 63.8519C59.9619 63.7299 59.9231 63.5825 59.8554 63.4472C59.7897 63.3158 59.7069 63.2149 59.6014 63.1446C59.5021 63.0784 59.3249 63 58.9999 63H56.4999C55.9476 63 55.4999 62.5523 55.4999 62C55.4999 61.4477 55.9476 61 56.4999 61H58.9999C59.3249 61 59.5021 60.9216 59.6014 60.8554C59.7069 60.7851 59.7897 60.6842 59.8554 60.5528C59.9231 60.4175 59.9619 60.2701 59.9822 60.1481C59.992 60.0895 59.9965 60.0428 59.9985 60.0147C59.9993 60.0038 59.9996 59.9961 59.9998 59.9918C59.9954 59.4433 59.5494 59 58.9999 59H54.9999C54.4476 59 53.9999 58.5523 53.9999 58ZM49.5999 59.0003L46 59.0008C45.4477 59.0008 44.9999 58.5532 44.9999 58.0009C44.9998 57.4486 45.4474 57.0008 45.9997 57.0008L49.5996 57.0003C51.4774 57.0001 52.9999 58.5223 52.9999 60.4001C52.9999 61.836 51.8358 63 50.4 63H50.0515C50.025 63.0028 49.9878 63.0069 49.9413 63.0122C49.8376 63.024 49.6882 63.042 49.5085 63.0662C49.1469 63.115 48.672 63.1879 48.2032 63.2852C47.7221 63.3852 47.2995 63.5005 47.017 63.6209C47.0111 63.6234 47.0054 63.6259 46.9998 63.6283L46.9998 65H51.9999C52.5521 65 52.9999 65.4477 52.9999 66C52.9999 66.5523 52.5521 67 51.9999 67H45.9999C45.4476 67 44.9999 66.5523 44.9999 66V63.2677C44.9999 62.7455 45.3024 62.3918 45.5183 62.2054C45.74 62.0141 46.0032 61.8789 46.2328 61.781C46.7003 61.5818 47.2777 61.4348 47.7965 61.327C48.3277 61.2167 48.8528 61.1365 49.2412 61.0841C49.4365 61.0578 49.5996 61.0382 49.7147 61.0251C49.7723 61.0185 49.818 61.0135 49.8498 61.0102L49.8869 61.0063L49.8973 61.0053L49.9003 61.005L49.9016 61.0048C49.9018 61.0048 49.9019 61.0048 49.9999 62L49.9016 61.0048C49.9342 61.0016 49.9671 61 49.9999 61H50.4C50.7313 61 50.9999 60.7314 50.9999 60.4001C50.9999 59.627 50.373 59.0002 49.5999 59.0003Z" fill="#050606"/>
</svg>
