<svg width="92" height="92" viewBox="0 0 92 92" fill="none" xmlns="http://www.w3.org/2000/svg">
<circle cx="46" cy="46" r="46" fill="#F0ECE4"/>
<path fill-rule="evenodd" clip-rule="evenodd" d="M45.9999 19C42.6862 19 39.9999 21.6863 39.9999 25C39.9999 28.3137 42.6862 31 45.9999 31C49.3136 31 51.9999 28.3137 51.9999 25C51.9999 21.6863 49.3136 19 45.9999 19ZM37.9999 25C37.9999 20.5817 41.5816 17 45.9999 17C50.4182 17 53.9999 20.5817 53.9999 25C53.9999 29.4183 50.4182 33 45.9999 33C41.5816 33 37.9999 29.4183 37.9999 25ZM54.4137 40.7445C52.5807 39.3382 50.1001 37.9378 45.5252 38.0021C45.516 38.0023 45.5067 38.0023 45.4974 38.0021C40.9238 37.9391 38.443 39.3395 36.6095 40.7456C36.1828 41.0728 35.7908 41.4009 35.4007 41.7274C35.3576 41.7635 35.3145 41.7996 35.2713 41.8356C34.8463 42.1909 34.4134 42.5491 33.9723 42.8617C33.0914 43.4858 32.0981 43.9868 30.8498 44.0016C29.2857 44.1626 27.7214 43.7121 26.4734 42.7442C26.3965 42.6845 26.3288 42.614 26.2722 42.5348C25.3334 41.219 23.5517 40.921 22.257 41.8428C20.961 42.7656 20.6084 44.5854 21.4751 45.9488C23.7066 48.782 27.1626 50.2962 30.6999 50.0023C30.7325 49.9996 30.7652 49.9984 30.7979 49.9989C33.0321 50.0327 35.2226 49.352 37.0623 48.0495C37.3674 47.8334 37.7675 47.8056 38.0996 47.9774C38.4317 48.1491 38.6402 48.4918 38.6402 48.8656V60.8863C38.6402 61.2311 38.4626 61.5516 38.1702 61.7343C37.8778 61.917 37.5119 61.9363 37.202 61.7852L34.7042 60.5677C34.7039 60.5675 34.7036 60.5674 34.7033 60.5672C33.2595 59.8684 31.5184 60.4875 30.8196 61.9905C30.1157 63.5046 30.7557 65.2995 32.2114 66.0047L48.1463 73.7134L48.1463 73.7134C49.588 74.4109 51.3262 73.7923 52.0233 72.2912C52.7253 70.7794 52.0855 68.988 50.6321 68.2848L44.2582 65.2024C43.761 64.9619 43.5528 64.364 43.7933 63.8668C44.0337 63.3696 44.6317 63.1614 45.1289 63.4019L51.503 66.4844L51.5032 66.4845C53.9612 67.6737 54.9892 70.6529 53.8372 73.1335C52.6803 75.6249 49.7449 76.7086 47.2753 75.5138L31.34 67.8049L31.3395 67.8046C28.8795 66.613 27.8517 63.6301 29.006 61.1473C30.1653 58.6539 33.1044 57.5704 35.5761 58.7677L35.5783 58.7688L36.6402 59.2864V50.6349C34.8411 51.55 32.8459 52.0221 30.8167 51.9994C26.6 52.3332 22.5009 50.511 19.8718 47.1453C19.8546 47.1233 19.8383 47.1005 19.823 47.0771C18.3484 44.8226 18.9047 41.7745 21.0969 40.2136C23.2568 38.6758 26.2064 39.1489 27.8038 41.2424C28.64 41.8501 29.664 42.1222 30.6818 42.0081C30.7188 42.004 30.756 42.0019 30.7932 42.0019C31.488 42.0019 32.093 41.742 32.816 41.2298C33.1834 40.9695 33.5594 40.6599 33.9885 40.3012C34.0313 40.2655 34.0745 40.2293 34.1182 40.1927C34.5049 39.869 34.9298 39.5133 35.3924 39.1586C37.512 37.533 40.4172 35.9349 45.5111 36.0021C50.6063 35.9335 53.5116 37.5316 55.6311 39.1577C56.094 39.5128 56.5189 39.8687 56.9057 40.1927C56.9492 40.2291 56.9922 40.2651 57.0347 40.3007C57.4638 40.6595 57.8397 40.9692 58.207 41.2296C58.9297 41.742 59.5346 42.0019 60.2292 42.0019C60.2663 42.0019 60.3033 42.004 60.3402 42.0081C61.3606 42.1221 62.3872 41.8489 63.2254 41.2392C64.832 39.1753 67.7594 38.7217 69.9037 40.249C72.079 41.7986 72.6454 44.8158 71.205 47.0684C71.1882 47.0947 71.1701 47.1202 71.1509 47.1449C68.5207 50.5161 64.4158 52.3401 60.1945 52.002C58.15 52.0239 56.1394 51.5499 54.3247 50.6312V58.4457L54.8036 58.2669C54.8141 58.263 54.8246 58.2592 54.8352 58.2557C57.4342 57.3835 60.2099 58.834 61.0517 61.4477C61.8908 64.0528 60.5088 66.8824 57.9193 67.7514C57.3957 67.9271 56.8288 67.6451 56.6531 67.1215C56.4774 66.5979 56.7594 66.031 57.283 65.8553C58.8054 65.3444 59.6608 63.6529 59.148 62.0608C58.6396 60.4825 56.9951 59.6495 55.4862 60.1469L53.6745 60.8232C53.3674 60.9378 53.0237 60.8947 52.7545 60.7079C52.4853 60.521 52.3247 60.2141 52.3247 59.8864V48.8683C52.3247 48.4952 52.5324 48.1532 52.8634 47.981C53.1944 47.8089 53.5937 47.8354 53.8991 48.0496C55.7574 49.3534 57.9642 50.0345 60.2146 50.0016C60.2474 50.0011 60.2802 50.0023 60.3129 50.005C63.8523 50.3025 67.3113 48.7884 69.5437 45.9533C70.387 44.5914 70.0279 42.793 68.7433 41.878C67.4585 40.9628 65.6917 41.2484 64.7464 42.5435C64.6911 42.6194 64.6253 42.6871 64.551 42.7446C63.3019 43.7119 61.7374 44.1622 60.1727 44.0016C58.9242 43.9869 57.9309 43.4855 57.0502 42.8611C56.6092 42.5484 56.1764 42.1901 55.7515 41.8347C55.7087 41.7989 55.6658 41.763 55.623 41.7271C55.2327 41.4003 54.8406 41.072 54.4137 40.7445Z" fill="#050606"/>
</svg>
